<svg id="Layer_1" data-name="Layer 1" xmlns="http://www.w3.org/2000/svg" viewBox="0 0 142.49 32.39"><defs><style>.cls-1{fill:#414141;}</style></defs><path class="cls-1" d="M13.47,9a3.19,3.19,0,0,0-3.08,2.35c-.62,1.57-.93,4.16-.93,7.79v2.55q0,4.85,1.07,7a4.06,4.06,0,0,0,4,2.1,5.8,5.8,0,0,0,4.61-2,9.34,9.34,0,0,0,2.2-4.46l.89.1a9.92,9.92,0,0,1-3.43,6.08,11.49,11.49,0,0,1-7,1.91q-5.68,0-8.72-3.06t-3-9q0-5.91,3.45-9.09t9.63-3.19q4.37,0,6.67,1.7A5.08,5.08,0,0,1,22.05,14,5.36,5.36,0,0,1,21,17.74a4,4,0,0,1-3,1.17,4.53,4.53,0,0,1-3.11-1,3.78,3.78,0,0,1-1.18-3,6.36,6.36,0,0,1,.25-1.77h1.61a5.37,5.37,0,0,0,.35-1.76A2.08,2.08,0,0,0,13.47,9Z"/><path class="cls-1" d="M35.18,20.38H36.6V16.61a24.63,24.63,0,0,0-.51-6.25,2,2,0,0,0-2-1.59,2.83,2.83,0,0,0-1.59.47,1.45,1.45,0,0,0-.71,1.27,5,5,0,0,0,.29,1.64h1.23a7,7,0,0,1,.39,2.48,3.23,3.23,0,0,1-1.22,2.5,4.59,4.59,0,0,1-3.09,1.05q-4.21,0-4.22-4.07,0-6,10.25-6c3.88,0,6.57.67,8.06,2s2.23,3.75,2.23,7.28v9.94c0,1.7.47,2.55,1.42,2.55q1.66,0,2-5.05l.73.05c-.13,2.88-.67,4.85-1.62,5.93s-2.49,1.62-4.65,1.62q-5.88,0-6.76-3.63a5.33,5.33,0,0,1-1.91,2.75,6.61,6.61,0,0,1-3.73.88q-7.25,0-7.25-5.93a4.8,4.8,0,0,1,2.77-4.78C28.52,20.82,31.36,20.38,35.18,20.38Zm-1.69,9.31a1,1,0,0,0,1,.74c.51,0,1-.42,1.42-1.25a7.48,7.48,0,0,0,.66-3.45V21.17h-.34c-2,0-3,1.48-3,4.46v.78A12.06,12.06,0,0,0,33.49,29.69Z"/><path class="cls-1" d="M64,9A3.2,3.2,0,0,0,61,11.32c-.62,1.57-.93,4.16-.93,7.79v2.55q0,4.85,1.08,7a4.05,4.05,0,0,0,4,2.1,5.82,5.82,0,0,0,4.61-2,9.43,9.43,0,0,0,2.2-4.46l.88.1a9.88,9.88,0,0,1-3.43,6.08,11.45,11.45,0,0,1-7,1.91q-5.69,0-8.73-3.06t-3-9q0-5.91,3.45-9.09t9.63-3.19q4.37,0,6.66,1.7A5.06,5.06,0,0,1,72.62,14a5.31,5.31,0,0,1-1.11,3.73,4,4,0,0,1-3,1.17,4.55,4.55,0,0,1-3.12-1,3.8,3.8,0,0,1-1.17-3,6.74,6.74,0,0,1,.24-1.77h1.62a5.34,5.34,0,0,0,.34-1.76A2.07,2.07,0,0,0,64,9Z"/><path class="cls-1" d="M76.44,24.89V9.46h-2.7V8.57h2.7V2.25L85.55,0V8.57h6.37v.89H85.55V26A9.06,9.06,0,0,0,86,29.35,1.88,1.88,0,0,0,88,30.43,3.17,3.17,0,0,0,90.52,29a8.48,8.48,0,0,0,1.45-4l.83.1a9.52,9.52,0,0,1-2.15,5.36q-1.77,2-5.83,2a10.24,10.24,0,0,1-6.23-1.62Q76.44,29.15,76.44,24.89Z"/><path class="cls-1" d="M121.71,31.9H110.54L110,28.32a6.43,6.43,0,0,1-2.33,3,8.14,8.14,0,0,1-4.58,1.05q-7.59,0-7.59-8.18V9.46H92.75V8.57h11.86V25.38a11.28,11.28,0,0,0,.42,3.87,1.64,1.64,0,0,0,1.67.93,2.71,2.71,0,0,0,2.22-1.51,7.71,7.71,0,0,0,1-4.22v-15h-2.25V8.57H119V31h2.69Z"/><path class="cls-1" d="M123.82,32.39V23.62h.59q1.28,4.26,3.43,6a8.4,8.4,0,0,0,5.39,1.71q5,0,5-3.18A2.22,2.22,0,0,0,137,26.07a16.39,16.39,0,0,0-4.9-1.67,19.36,19.36,0,0,1-5.59-2.35,6.21,6.21,0,0,1-2.69-5.59,8.11,8.11,0,0,1,2.35-6.1,8.63,8.63,0,0,1,6.27-2.28,12.24,12.24,0,0,1,4.95,1.13,4.11,4.11,0,0,0,1.42.39,1.14,1.14,0,0,0,.84-.34A5.73,5.73,0,0,0,140.48,8H141v7.49h-.59q-2.51-6.36-7.74-6.37a5.88,5.88,0,0,0-3.43.81,2.44,2.44,0,0,0-1.13,2,1.75,1.75,0,0,0,.35,1.15,7,7,0,0,0,.53.61,2.71,2.71,0,0,0,.64.42c.3.14.54.26.74.34s.49.19.9.32a6.63,6.63,0,0,0,.91.24,37.71,37.71,0,0,1,4.8,1.45A17,17,0,0,1,139.79,18c1.8,1.24,2.7,3.25,2.7,6A7.87,7.87,0,0,1,140,30.26a9.88,9.88,0,0,1-6.71,2.13A12.93,12.93,0,0,1,127.45,31a1.94,1.94,0,0,0-.94-.39c-.71,0-1.42.6-2.1,1.81Z"/></svg>